# xmcd
#
# Track frame offsets:
#	150
#	23400
#	38100
#	55275
#	70500
#	82275
#	100125
#	117150
#	134400
#	153375
#	170925
#	186900
#	204225
#	224925
#	240750
#
# Disc length: 3427 seconds
#
# Revision: 1
# Processed by: cddbd v1.5.2PL0 Copyright (c) Steve Scherf et al.
# Submitted via: audiograbber 1.81.02
#
DISCID=d20d610f
DTITLE=Heinrich Reisich - Segen
DYEAR=2009
DGENRE=Christian Rock
TTITLE0=Du hast die Kraft
TTITLE1=Wir wollen dich verherrlichen* Neu jeden Tag neu
TTITLE2=Wenn ich staunend erkenne
TTITLE3=Keiner ist so wie du
TTITLE4=Ich steh vor dir
TTITLE5=Herr lebe du durch uns
TTITLE6=Bei dir ist Leben
TTITLE7=Das ist der Vater
TTITLE8=Mein Wort
TTITLE9=In mir
TTITLE10=Wir sind das Licht
TTITLE11=Noch viel mehr
TTITLE12=Nah bei dir
TTITLE13=Stille
TTITLE14=Segen
EXTD=www.gerth.de, Art.-Nr.: 556129
EXTT0=
EXTT1=
EXTT2=
EXTT3=
EXTT4=
EXTT5=
EXTT6=
EXTT7=
EXTT8=
EXTT9=
EXTT10=
EXTT11=
EXTT12=
EXTT13=
EXTT14=
PLAYORDER=
